<svg width="22" height="22" viewBox="0 0 22 22" fill="none" xmlns="http://www.w3.org/2000/svg">
<path fill-rule="evenodd" clip-rule="evenodd" d="M11.0046 -0.000244141C13.7961 -0.000244141 16.0723 2.20291 16.1027 4.92105L16.35 4.92217C19.4661 4.92217 22 7.39168 22 10.4277V16.4953C22 19.5302 19.4661 21.9998 16.35 21.9998H5.65005C2.53508 21.9998 0 19.5302 0 16.4953V10.4277C0 7.39168 2.53508 4.92217 5.65005 4.92217L5.88021 4.92118L5.88736 4.70725C5.95821 3.45934 6.48534 2.31453 7.38986 1.44186C8.35786 0.505759 9.65755 0.0382561 11.0046 -0.000244141ZM16.35 6.57218L16.1029 6.57119L16.103 8.3114C16.103 8.7668 15.7239 9.1364 15.2568 9.1364C14.7898 9.1364 14.4107 8.7668 14.4107 8.3114L14.4106 6.57119H7.57138L7.5715 8.3114C7.5715 8.7668 7.19242 9.1364 6.72534 9.1364C6.25827 9.1364 5.87919 8.7668 5.87919 8.3114L5.87908 6.57119L5.65005 6.57218C3.4681 6.57218 1.69231 8.30139 1.69231 10.4277V16.4953C1.69231 18.6205 3.4681 20.3497 5.65005 20.3497H16.35C18.5319 20.3497 20.3077 18.6205 20.3077 16.4953V10.4277C20.3077 8.30139 18.5319 6.57218 16.35 6.57218ZM11.0012 1.64976C10.0863 1.68056 9.22883 1.98857 8.58124 2.61337C7.94305 3.23019 7.58535 4.04785 7.57187 4.92107L14.4083 4.92118L14.4049 4.78107C14.301 3.03775 12.8148 1.64976 11.0012 1.64976Z" fill="#8D8598"/>
</svg>
