<svg width="20" height="20" viewBox="0 0 20 20" fill="none" xmlns="http://www.w3.org/2000/svg">
<path fill-rule="evenodd" clip-rule="evenodd" d="M6.23853 17.9167H13.195C15.7504 17.9167 17.7107 16.9937 17.1539 13.279L16.5055 8.24467C16.1623 6.39112 14.9799 5.68174 13.9426 5.68174H5.4605C4.40786 5.68174 3.29421 6.44452 2.89757 8.24467L2.24921 13.279C1.77629 16.5742 3.68323 17.9167 6.23853 17.9167Z" stroke="#352E5B" stroke-width="1.5" stroke-linecap="round" stroke-linejoin="round"/>
<path d="M6.1241 5.49867C6.1241 3.51027 7.73601 1.89836 9.7244 1.89836V1.89836C10.6819 1.89431 11.6016 2.27183 12.2801 2.94746C12.9586 3.62309 13.34 4.54116 13.34 5.49867V5.49867" stroke="#352E5B" stroke-width="1.5" stroke-linecap="round" stroke-linejoin="round"/>
<path d="M7.25301 9.25153H7.29115" stroke="#352E5B" stroke-width="1.5" stroke-linecap="round" stroke-linejoin="round"/>
<path d="M12.1119 9.25153H12.15" stroke="#352E5B" stroke-width="1.5" stroke-linecap="round" stroke-linejoin="round"/>
</svg>
