<svg width="20" height="22" viewBox="0 0 20 22" fill="none" xmlns="http://www.w3.org/2000/svg">
<path fill-rule="evenodd" clip-rule="evenodd" d="M13.6295 16.5457H6.31632C5.89698 16.5457 5.55664 16.1744 5.55664 15.7169C5.55664 15.2595 5.89698 14.8882 6.31632 14.8882H13.6295C14.0488 14.8882 14.3891 15.2595 14.3891 15.7169C14.3891 16.1744 14.0488 16.5457 13.6295 16.5457" fill="#8D8598"/>
<path fill-rule="evenodd" clip-rule="evenodd" d="M13.6295 11.9197H6.31632C5.89698 11.9197 5.55664 11.5484 5.55664 11.0909C5.55664 10.6335 5.89698 10.2622 6.31632 10.2622H13.6295C14.0488 10.2622 14.3891 10.6335 14.3891 11.0909C14.3891 11.5484 14.0488 11.9197 13.6295 11.9197" fill="#8D8598"/>
<path fill-rule="evenodd" clip-rule="evenodd" d="M9.10686 7.30445H6.31632C5.89698 7.30445 5.55664 6.93317 5.55664 6.47571C5.55664 6.01825 5.89698 5.64697 6.31632 5.64697H9.10686C9.5262 5.64697 9.86654 6.01825 9.86654 6.47571C9.86654 6.93317 9.5262 7.30445 9.10686 7.30445" fill="#8D8598"/>
<mask id="mask0_533_401" style="mask-type:alpha" maskUnits="userSpaceOnUse" x="0" y="0" width="20" height="23">
<path fill-rule="evenodd" clip-rule="evenodd" d="M0.75 0.000244141H19.1491V22.0002H0.75V0.000244141Z" fill="white"/>
</mask>
<g mask="url(#mask0_533_401)">
<path fill-rule="evenodd" clip-rule="evenodd" d="M13.8249 1.65747L6.03668 1.66189C3.67865 1.67736 2.26869 3.26854 2.26869 5.91939V16.0808C2.26869 18.7494 3.69182 20.3427 6.07315 20.3427L13.8613 20.3394C16.2194 20.324 17.6293 18.7306 17.6293 16.0808V5.91939C17.6293 3.25086 16.2072 1.65747 13.8249 1.65747ZM6.07434 22.0001C2.88977 22.0001 0.749512 19.6211 0.749512 16.0807V5.91927C0.749512 2.34686 2.82292 0.0252925 6.03179 0.00429786L13.824 -0.00012207H13.8251C17.0096 -0.00012207 19.1489 2.37891 19.1489 5.91927V16.0807C19.1489 19.652 17.0755 21.9747 13.8666 21.9968L6.07434 22.0001Z" fill="#8D8598"/>
</g>
</svg>
