<svg width="20" height="20" viewBox="0 0 20 20" fill="none" xmlns="http://www.w3.org/2000/svg">
<path d="M14.6624 9.1099C15.9977 9.1099 17.0809 8.02747 17.0809 6.69219C17.0809 5.35691 15.9977 4.27448 14.6624 4.27448" stroke="#352E5B" stroke-width="1.5" stroke-linecap="round" stroke-linejoin="round"/>
<path d="M15.7742 11.7373C16.173 11.7648 16.5694 11.8213 16.9598 11.9092C17.5021 12.0153 18.1545 12.2376 18.3867 12.7242C18.5349 13.0359 18.5349 13.3988 18.3867 13.7112C18.1552 14.1978 17.5021 14.4193 16.9598 14.5308" stroke="#352E5B" stroke-width="1.5" stroke-linecap="round" stroke-linejoin="round"/>
<path d="M5.24162 9.1099C3.90635 9.1099 2.82315 8.02747 2.82315 6.69219C2.82315 5.35691 3.90635 4.27448 5.24162 4.27448" stroke="#352E5B" stroke-width="1.5" stroke-linecap="round" stroke-linejoin="round"/>
<path d="M4.1298 11.7373C3.73105 11.7648 3.33459 11.8213 2.94424 11.9092C2.40188 12.0153 1.74952 12.2376 1.51806 12.7242C1.3691 13.0359 1.3691 13.3988 1.51806 13.7112C1.74875 14.1978 2.40188 14.4193 2.94424 14.5308" stroke="#352E5B" stroke-width="1.5" stroke-linecap="round" stroke-linejoin="round"/>
<path fill-rule="evenodd" clip-rule="evenodd" d="M9.9481 12.258C12.6538 12.258 14.9653 12.6674 14.9653 14.3059C14.9653 15.9437 12.6691 16.3684 9.9481 16.3684C7.24164 16.3684 4.93088 15.959 4.93088 14.3205C4.93088 12.6819 7.22713 12.258 9.9481 12.258Z" stroke="#352E5B" stroke-width="1.5" stroke-linecap="round" stroke-linejoin="round"/>
<path fill-rule="evenodd" clip-rule="evenodd" d="M9.94812 9.92076C8.16367 9.92076 6.73291 8.49 6.73291 6.70479C6.73291 4.92035 8.16367 3.48958 9.94812 3.48958C11.7326 3.48958 13.1633 4.92035 13.1633 6.70479C13.1633 8.49 11.7326 9.92076 9.94812 9.92076Z" stroke="#352E5B" stroke-width="1.5" stroke-linecap="round" stroke-linejoin="round"/>
</svg>
