<svg width="20" height="21" viewBox="0 0 20 21" fill="none" xmlns="http://www.w3.org/2000/svg">
<mask id="path-2-inside-1_307_762" fill="white">
<path d="M18.575 1H1.475C1.21269 1 1 1.22389 1 1.5V19.5C1 19.6326 1.05004 19.7598 1.13911 19.8536C1.22817 19.9473 1.34904 20 1.475 20H18.575C18.701 20 18.8218 19.9473 18.9109 19.8536C19 19.7598 19.05 19.6326 19.05 19.5V1.5C19.05 1.36741 19 1.24018 18.9109 1.14643C18.8218 1.05268 18.701 1 18.575 1ZM5.13494 17.3526C5.41761 17.0575 5.6835 16.82 5.94244 16.6026C6.74761 15.8775 7.44589 15.2501 7.65011 13.5626C7.7116 12.8771 7.72199 12.1874 7.68107 11.5001H7.69294C7.95525 11.4753 8.14864 11.2314 8.12511 10.955C8.10157 10.6789 7.8698 10.4753 7.60727 10.5001C7.4864 10.5066 7.36511 10.5066 7.24402 10.5001C7.21009 10.4963 7.17574 10.4963 7.14181 10.5001C6.63585 10.4751 5.83092 10.3526 5.31076 9.85012C4.9562 9.49342 4.76938 8.99029 4.80013 8.47514C4.79123 7.9843 5.03106 7.52537 5.42952 7.27023C5.80019 7.00036 6.26395 6.91376 6.70013 7.03273V7.17782V8.50017C6.70013 8.77628 6.91283 9.00017 7.17513 9.00017C7.43744 9.00017 7.65013 8.77628 7.65013 8.50017V7.17759C7.65077 6.60034 7.86897 6.04679 8.25683 5.63874C8.64446 5.23048 9.17035 5.00079 9.71874 5.00011H11.2127C11.7795 5.00011 12.3232 5.23716 12.7242 5.65902C13.125 6.08112 13.3502 6.65342 13.3502 7.25011V9.21017C13.2649 9.15302 13.1769 9.10034 13.0866 9.05258C12.8533 8.93985 12.5773 9.04253 12.463 9.28427C12.3487 9.52624 12.4377 9.81999 12.6638 9.94765C13.4271 10.3836 13.9931 11.1224 14.2362 12.0001H11.9252C11.6629 12.0001 11.4502 12.224 11.4502 12.5001C11.4502 12.7762 11.6629 13.0001 11.9252 13.0001H14.198C13.9272 13.6351 13.153 14.0001 12.4002 14.0001C11.5662 14.0269 10.7534 13.7224 10.1226 13.1476C9.93404 12.9778 9.65329 12.9892 9.4777 13.1738C9.30233 13.3586 9.29152 13.6541 9.45289 13.8526C9.7574 14.1602 10.1124 14.4075 10.5002 14.5827C10.4867 14.9423 10.5719 15.2985 10.7454 15.6088C10.9188 15.9191 11.1735 16.1704 11.4786 16.3327C11.6021 16.4099 11.7183 16.4994 11.8256 16.6001C12.1044 16.8664 12.4121 17.097 12.7423 17.2876C13.4382 17.7327 14.1531 18.1925 14.2765 18.9976H4.8004C4.77898 18.5001 4.84323 17.6626 5.13523 17.3525L5.13494 17.3526ZM18.1 19.0001H15.25C15.1312 17.6401 14.0625 16.9477 13.2478 16.4351C12.9853 16.282 12.738 16.1021 12.5092 15.8976C12.3517 15.7436 12.1771 15.6101 11.9891 15.5001C11.7278 15.3226 11.5616 15.2101 11.4903 14.9151C11.7904 14.9738 12.0949 15.0023 12.4 15.0001C13.8012 15.0001 15.25 14.0651 15.25 12.5001C15.2167 11.5979 14.88 10.7376 14.3 10.0727V7.25012C14.3 6.38806 13.9747 5.56149 13.3956 4.95212C12.8167 4.34252 12.0315 4.00012 11.2125 4.00012H9.71858C9.09175 4.00146 8.4806 4.20771 7.96999 4.59075C7.45936 4.97378 7.07449 5.51418 6.86858 6.13761H6.84717C6.33188 5.88761 5.53627 6.02019 4.91389 6.44251H4.9141C4.24655 6.87823 3.84321 7.64851 3.84999 8.47509C3.81882 9.27309 4.11866 10.0458 4.67172 10.5925C5.25529 11.1008 5.97349 11.4073 6.72844 11.4702C6.76746 12.1255 6.75961 12.7833 6.70469 13.4376C6.54798 14.7452 6.08952 15.1526 5.32952 15.8275C5.06827 16.0575 4.77375 16.3275 4.46497 16.6477C3.87841 17.2626 3.82603 18.4427 3.83791 19.0001H1.95002V2.00011H18.1L18.1 19.0001Z"/>
</mask>
<path d="M18.575 1H1.475C1.21269 1 1 1.22389 1 1.5V19.5C1 19.6326 1.05004 19.7598 1.13911 19.8536C1.22817 19.9473 1.34904 20 1.475 20H18.575C18.701 20 18.8218 19.9473 18.9109 19.8536C19 19.7598 19.05 19.6326 19.05 19.5V1.5C19.05 1.36741 19 1.24018 18.9109 1.14643C18.8218 1.05268 18.701 1 18.575 1ZM5.13494 17.3526C5.41761 17.0575 5.6835 16.82 5.94244 16.6026C6.74761 15.8775 7.44589 15.2501 7.65011 13.5626C7.7116 12.8771 7.72199 12.1874 7.68107 11.5001H7.69294C7.95525 11.4753 8.14864 11.2314 8.12511 10.955C8.10157 10.6789 7.8698 10.4753 7.60727 10.5001C7.4864 10.5066 7.36511 10.5066 7.24402 10.5001C7.21009 10.4963 7.17574 10.4963 7.14181 10.5001C6.63585 10.4751 5.83092 10.3526 5.31076 9.85012C4.9562 9.49342 4.76938 8.99029 4.80013 8.47514C4.79123 7.9843 5.03106 7.52537 5.42952 7.27023C5.80019 7.00036 6.26395 6.91376 6.70013 7.03273V7.17782V8.50017C6.70013 8.77628 6.91283 9.00017 7.17513 9.00017C7.43744 9.00017 7.65013 8.77628 7.65013 8.50017V7.17759C7.65077 6.60034 7.86897 6.04679 8.25683 5.63874C8.64446 5.23048 9.17035 5.00079 9.71874 5.00011H11.2127C11.7795 5.00011 12.3232 5.23716 12.7242 5.65902C13.125 6.08112 13.3502 6.65342 13.3502 7.25011V9.21017C13.2649 9.15302 13.1769 9.10034 13.0866 9.05258C12.8533 8.93985 12.5773 9.04253 12.463 9.28427C12.3487 9.52624 12.4377 9.81999 12.6638 9.94765C13.4271 10.3836 13.9931 11.1224 14.2362 12.0001H11.9252C11.6629 12.0001 11.4502 12.224 11.4502 12.5001C11.4502 12.7762 11.6629 13.0001 11.9252 13.0001H14.198C13.9272 13.6351 13.153 14.0001 12.4002 14.0001C11.5662 14.0269 10.7534 13.7224 10.1226 13.1476C9.93404 12.9778 9.65329 12.9892 9.4777 13.1738C9.30233 13.3586 9.29152 13.6541 9.45289 13.8526C9.7574 14.1602 10.1124 14.4075 10.5002 14.5827C10.4867 14.9423 10.5719 15.2985 10.7454 15.6088C10.9188 15.9191 11.1735 16.1704 11.4786 16.3327C11.6021 16.4099 11.7183 16.4994 11.8256 16.6001C12.1044 16.8664 12.4121 17.097 12.7423 17.2876C13.4382 17.7327 14.1531 18.1925 14.2765 18.9976H4.8004C4.77898 18.5001 4.84323 17.6626 5.13523 17.3525L5.13494 17.3526ZM18.1 19.0001H15.25C15.1312 17.6401 14.0625 16.9477 13.2478 16.4351C12.9853 16.282 12.738 16.1021 12.5092 15.8976C12.3517 15.7436 12.1771 15.6101 11.9891 15.5001C11.7278 15.3226 11.5616 15.2101 11.4903 14.9151C11.7904 14.9738 12.0949 15.0023 12.4 15.0001C13.8012 15.0001 15.25 14.0651 15.25 12.5001C15.2167 11.5979 14.88 10.7376 14.3 10.0727V7.25012C14.3 6.38806 13.9747 5.56149 13.3956 4.95212C12.8167 4.34252 12.0315 4.00012 11.2125 4.00012H9.71858C9.09175 4.00146 8.4806 4.20771 7.96999 4.59075C7.45936 4.97378 7.07449 5.51418 6.86858 6.13761H6.84717C6.33188 5.88761 5.53627 6.02019 4.91389 6.44251H4.9141C4.24655 6.87823 3.84321 7.64851 3.84999 8.47509C3.81882 9.27309 4.11866 10.0458 4.67172 10.5925C5.25529 11.1008 5.97349 11.4073 6.72844 11.4702C6.76746 12.1255 6.75961 12.7833 6.70469 13.4376C6.54798 14.7452 6.08952 15.1526 5.32952 15.8275C5.06827 16.0575 4.77375 16.3275 4.46497 16.6477C3.87841 17.2626 3.82603 18.4427 3.83791 19.0001H1.95002V2.00011H18.1L18.1 19.0001Z" fill="#352E5B" stroke="#352E5B" stroke-width="8" mask="url(#path-2-inside-1_307_762)"/>
<mask id="path-3-inside-2_307_762" fill="white">
<path d="M10.5 7.50001C10.5 7.77612 10.2873 8.00001 10.025 8.00001C9.76268 8.00001 9.54999 7.77612 9.54999 7.50001C9.54999 7.22389 9.76268 7.00001 10.025 7.00001C10.2873 7.00001 10.5 7.22389 10.5 7.50001Z"/>
</mask>
<path d="M10.5 7.50001C10.5 7.77612 10.2873 8.00001 10.025 8.00001C9.76268 8.00001 9.54999 7.77612 9.54999 7.50001C9.54999 7.22389 9.76268 7.00001 10.025 7.00001C10.2873 7.00001 10.5 7.22389 10.5 7.50001Z" fill="#352E5B" stroke="#352E5B" stroke-width="8" mask="url(#path-3-inside-2_307_762)"/>
<mask id="path-4-inside-3_307_762" fill="white">
<path d="M12.3999 7.50001C12.3999 7.77612 12.1872 8.00001 11.9249 8.00001C11.6626 8.00001 11.4499 7.77612 11.4499 7.50001C11.4499 7.22389 11.6626 7.00001 11.9249 7.00001C12.1872 7.00001 12.3999 7.22389 12.3999 7.50001Z"/>
</mask>
<path d="M12.3999 7.50001C12.3999 7.77612 12.1872 8.00001 11.9249 8.00001C11.6626 8.00001 11.4499 7.77612 11.4499 7.50001C11.4499 7.22389 11.6626 7.00001 11.9249 7.00001C12.1872 7.00001 12.3999 7.22389 12.3999 7.50001Z" fill="#352E5B" stroke="#352E5B" stroke-width="8" mask="url(#path-4-inside-3_307_762)"/>
<rect x="1" y="1" width="18.05" height="19" stroke="#352E5B" stroke-linejoin="round"/>
</svg>
