<svg width="22" height="22" viewBox="0 0 22 22" fill="none" xmlns="http://www.w3.org/2000/svg">
<path fill-rule="evenodd" clip-rule="evenodd" d="M8.57863 4.33254C9.03457 4.68299 9.29677 5.20556 9.29677 5.76627C9.29677 10.2859 9.45261 11.5022 10.0897 11.965C10.5077 12.267 11.0805 12.2639 13.0106 12.2113C13.9078 12.1855 15.0566 12.1526 16.5613 12.1526C17.1615 12.1526 17.7269 12.4041 18.1102 12.8421C18.4661 13.2492 18.622 13.7811 18.5398 14.3047C17.8364 18.7625 13.9615 22 9.32625 22C4.18349 22 0 17.905 0 12.872C0 8.88108 3.08313 4.89016 6.8728 3.97695C7.46458 3.83574 8.10058 3.96767 8.57863 4.33254ZM7.35191 5.46633C7.31822 5.46633 7.28452 5.47045 7.25082 5.4787C4.12347 6.23215 1.57947 9.54898 1.57947 12.872C1.57947 17.0526 5.05431 20.4539 9.32625 20.4539C13.177 20.4539 16.3949 17.7689 16.9783 14.0687C16.9825 14.0377 16.9972 13.9481 16.9109 13.8481C16.8287 13.7543 16.6982 13.6986 16.5613 13.6986C15.0755 13.6986 13.9415 13.7316 13.0559 13.7564C10.912 13.8192 10.0254 13.8429 9.14935 13.207C7.89663 12.2986 7.73192 10.7713 7.71832 6.48574L7.7173 5.76627C7.7173 5.67969 7.67939 5.60754 7.60357 5.54982C7.53302 5.49519 7.44352 5.46633 7.35191 5.46633ZM19.0067 2.8177C20.8579 4.62867 22.033 7.00858 21.9993 8.88139C21.9867 9.61217 21.4444 10.2223 20.7115 10.3306C19.2815 10.5419 17.6073 10.6058 16.1258 10.6058C14.7464 10.6058 13.5323 10.5511 12.8341 10.512C11.956 10.4615 11.2568 9.77605 11.2062 8.91643C11.1241 7.55383 10.9462 4.09167 11.0725 1.41387C11.1073 0.635684 11.7496 0.016225 12.5351 0.00282576C14.7853 -0.0610785 17.1071 0.961389 19.0067 2.8177ZM12.6699 1.54786H12.6467C12.5309 4.14423 12.7025 7.49817 12.7826 8.82676C12.7868 8.90613 12.8457 8.96385 12.9258 8.96797C14.0082 9.02878 17.7379 9.19782 20.4199 8.8113C20.4261 7.36418 19.4142 5.4017 17.8906 3.91129C16.3279 2.38377 14.4789 1.54786 12.6699 1.54786Z" fill="#8D8598"/>
</svg>
